v -10.000 -23.902 13.514
v 10.000 -23.903 48.514
v -10.000 -23.903 48.514
v 10.000 -23.902 13.514
v -10.000 -18.902 13.515
v -10.000 -18.903 48.515
v 10.000 -18.902 13.515
v 10.000 -18.903 48.515
vn 0.000 -1.000 -0.000
vn 0.000 -1.000 -0.000
vn -0.000 1.000 0.000
vn -0.000 1.000 0.000
vn -1.000 -0.000 -0.000
vn -1.000 -0.000 -0.000
vn -0.000 -0.000 1.000
vn -0.000 -0.000 1.000
vn 1.000 0.000 0.000
vn 1.000 0.000 0.000
vn 0.000 0.000 -1.000
vn 0.000 0.000 -1.000
f 1//1 2//1 3//1
f 4//2 2//2 1//2
f 5//3 6//3 7//3
f 6//4 8//4 7//4
f 3//5 6//5 5//5
f 3//6 5//6 1//6
f 6//7 3//7 2//7
f 6//8 2//8 8//8
f 8//9 2//9 7//9
f 2//10 4//10 7//10
f 1//11 5//11 4//11
f 5//12 7//12 4//12
